<svg id="Layer_1" data-name="Layer 1" xmlns="http://www.w3.org/2000/svg" xmlns:xlink="http://www.w3.org/1999/xlink" viewBox="0 0 421.19 125.75"><defs><style>.cls-1{fill:#fd4d10;}.cls-2{fill:#f4723b;}.cls-3{fill:url(#linear-gradient);}.cls-4{fill:url(#linear-gradient-2);}.cls-5{fill:url(#linear-gradient-3);}.cls-6{fill:url(#linear-gradient-4);}.cls-7{fill:url(#linear-gradient-5);}.cls-8{fill:url(#linear-gradient-6);}.cls-9{fill:url(#linear-gradient-7);}.cls-10{fill:url(#linear-gradient-8);}.cls-11{fill:url(#linear-gradient-9);}.cls-12{fill:url(#linear-gradient-10);}.cls-13{fill:url(#linear-gradient-11);}.cls-14{fill:url(#linear-gradient-12);}.cls-15{fill:url(#linear-gradient-13);}.cls-16{fill:url(#linear-gradient-14);}</style><linearGradient id="linear-gradient" x1="-39.05" y1="20.53" x2="-38.56" y2="20.53" gradientUnits="userSpaceOnUse"><stop offset="0" stop-color="#f4723b"/><stop offset="1" stop-color="#fd4d10"/></linearGradient><linearGradient id="linear-gradient-2" x1="-39.05" y1="27.79" x2="-38.56" y2="27.79" xlink:href="#linear-gradient"/><linearGradient id="linear-gradient-3" x1="-39.05" y1="24.59" x2="-38.56" y2="24.59" xlink:href="#linear-gradient"/><linearGradient id="linear-gradient-4" x1="-39.05" y1="24.6" x2="-38.56" y2="24.6" xlink:href="#linear-gradient"/><linearGradient id="linear-gradient-5" x1="-39.05" y1="24.55" x2="-38.56" y2="24.55" xlink:href="#linear-gradient"/><linearGradient id="linear-gradient-6" x1="-39.05" y1="24.57" x2="-38.56" y2="24.57" xlink:href="#linear-gradient"/><linearGradient id="linear-gradient-7" x1="-39.05" y1="24.52" x2="-38.56" y2="24.52" xlink:href="#linear-gradient"/><linearGradient id="linear-gradient-8" x1="26.24" y1="98.75" x2="26.24" y2="50.18" xlink:href="#linear-gradient"/><linearGradient id="linear-gradient-9" x1="72.73" y1="98.75" x2="72.73" y2="50.18" xlink:href="#linear-gradient"/><linearGradient id="linear-gradient-10" x1="125.7" y1="98.05" x2="125.7" y2="50.87" xlink:href="#linear-gradient"/><linearGradient id="linear-gradient-11" x1="177.77" y1="98.05" x2="177.77" y2="50.87" xlink:href="#linear-gradient"/><linearGradient id="linear-gradient-12" x1="226.45" y1="98.05" x2="226.45" y2="50.87" xlink:href="#linear-gradient"/><linearGradient id="linear-gradient-13" x1="269.39" y1="98.75" x2="269.39" y2="50.18" xlink:href="#linear-gradient"/><linearGradient id="linear-gradient-14" x1="312.59" y1="98.05" x2="312.59" y2="50.87" xlink:href="#linear-gradient"/></defs><rect class="cls-1" width="19" height="15"/><rect class="cls-2" y="19" width="19" height="15"/><path class="cls-3" d="M27.35,20c-.14-.2-.09-.27.09-.37s.59-.36.87-.55A9.76,9.76,0,0,0,32,14.74c.51-1.27,1.1-2.51,1.65-3.77.39-.88.78-1.77,1.18-2.7l-.36,0H21.86a2.74,2.74,0,0,0-.5,0,7.74,7.74,0,0,0-5.82,4.54q-4.32,9.75-8.6,19.53c-.21.46-.21.46.29.46,3.85,0,7.7,0,11.54,0a7.88,7.88,0,0,0,6.15-3,15.65,15.65,0,0,0,3-6A4.17,4.17,0,0,0,27.35,20Zm-5.76,4.22c-.39.94-.79,1.87-1.18,2.8a2.8,2.8,0,0,1-1.59,1.59,2.38,2.38,0,0,1-.88.17H14.61c-.36,0-.39-.08-.25-.39q1.16-2.58,2.26-5.16a.51.51,0,0,1,.58-.37c.61,0,1.21,0,1.82,0h0a12.81,12.81,0,0,0,1.64,0C21.4,22.8,22,23.34,21.59,24.26Zm5.05-11.39c-.58,1.3-1.14,2.61-1.74,3.9a2.55,2.55,0,0,1-2.61,1.63c-.47,0-.93,0-1.4,0H19c-.2,0-.33,0-.21-.27.59-1.32,1.12-2.68,1.77-4a2.73,2.73,0,0,1,2.64-1.64c1.05,0,2.11,0,3.17,0C26.71,12.52,26.76,12.61,26.64,12.87Z" transform="translate(90 27)"/><path class="cls-4" d="M67,19.13a2.27,2.27,0,0,0-2.39-2.94c-3.84.06-7.67,0-11.5,0a6,6,0,0,0-4.36,1.5,10.16,10.16,0,0,0-2.19,3.22c-1.53,3.35-3,6.72-4.54,10.07a.66.66,0,0,0,0,.58c.55,1.33,1.07,2.67,1.61,4s1,2.5,1.54,3.81c.08-.17.14-.27.19-.38.79-1.77,1.6-3.54,2.39-5.32Q50,28.61,52.3,23.54a2.26,2.26,0,0,1,2.2-1.45h2.59c.94,0,1.28.5.91,1.37s-.82,1.91-1.25,2.86a2.26,2.26,0,0,1-2.25,1.47c-1,0-2,0-3.07,0,0,.05,0,.06,0,.07l2.22,5.57a.24.24,0,0,0,.27.19,22.54,22.54,0,0,0,4.19-.17A5.25,5.25,0,0,0,62,30.55l4.62-10.26A6.12,6.12,0,0,0,67,19.13Z" transform="translate(90 27)"/><path class="cls-5" d="M41.61,29.18l-9,0c-.41,0-.63-.29-.47-.66.07-.15.14-.29.21-.45a1.14,1.14,0,0,1,1.22-.82c2.94,0,5.88,0,8.82,0a.48.48,0,0,0,.54-.35c.58-1.36,1.18-2.71,1.77-4.07.52-1.18,1-2.36,1.54-3.54.61-1.44,0-3-2-2.95-2.75.09-5.52,0-8.28,0a5.75,5.75,0,0,0-5.21,3.45c-1.3,2.58-2.37,5.27-3.52,7.92a10.3,10.3,0,0,0-.87,2.34,2.22,2.22,0,0,0,2.24,2.69c1.85,0,3.71,0,5.56,0H40a.44.44,0,0,0,.49-.31c.43-1,.88-2,1.33-3C41.89,29.27,41.9,29.18,41.61,29.18Zm-7-6.14c.31-.68.59-1.39.92-2.06a1.31,1.31,0,0,1,1.25-.78c1,0,1.92,0,2.89,0,.53,0,.77.31.58.79-.29.73-.61,1.44-.91,2.16-.08.18-.21.19-.37.19H34.78C34.53,23.34,34.47,23.29,34.58,23Z" transform="translate(90 27)"/><path class="cls-6" d="M78.58,29.18l-8.91,0c-.26,0-.49-.1-.48-.43a1.52,1.52,0,0,1,1.54-1.49h8.78c.24,0,.4,0,.5-.29q1.65-3.81,3.32-7.62a2.87,2.87,0,0,0,.19-1.61,1.72,1.72,0,0,0-1.93-1.37H72.77a2.22,2.22,0,0,0-.45,0,6.35,6.35,0,0,0-4.56,3.63c-1.31,2.87-2.55,5.77-3.82,8.65a4.33,4.33,0,0,0-.46,1.9,2.09,2.09,0,0,0,2.2,2.19H77.06a.5.5,0,0,0,.55-.36c.41-1,.84-1.91,1.26-2.86C79,29.18,79,29.18,78.58,29.18ZM71.69,23c.31-.68.59-1.38.92-2.06a1.32,1.32,0,0,1,1.25-.78h2.92c.55,0,.76.29.56.79-.29.71-.6,1.41-.89,2.12-.08.2-.21.22-.39.22H71.91C71.66,23.34,71.58,23.29,71.69,23Z" transform="translate(90 27)"/><path class="cls-7" d="M129.48,18.25a2.08,2.08,0,0,0-2-1.93H116.86a.43.43,0,0,0-.46.3c-.43,1-.86,2-1.31,3-.13.29-.1.37.23.37h7.54c1,0,1.09.09.67,1.06a1.28,1.28,0,0,1-1.35.85c-1,0-2,0-3,0s-1.81.06-2.71,0c-1.85-.15-4.23,1.64-4.85,3.22-.41,1.06-.92,2.08-1.35,3.13a8.48,8.48,0,0,0-.91,2.54,1.74,1.74,0,0,0,1.69,2c.35,0,.71,0,1.07,0,3.67,0,7.35,0,11,.07a.47.47,0,0,0,.54-.31q2.53-5.82,5.11-11.63A5.42,5.42,0,0,0,129.48,18.25Zm-9.42,10.49a.32.32,0,0,1-.34.18H116.1a.54.54,0,0,1-.53-.73,12.68,12.68,0,0,1,.77-1.72,1.29,1.29,0,0,1,1.19-.69c1.26,0,2.52,0,3.84,0C121,26.84,120.5,27.79,120.06,28.74Z" transform="translate(90 27)"/><path class="cls-8" d="M93.49,32.34c.63-1.49,1.29-3,1.94-4.45,1.07-2.43,2.13-4.87,3.21-7.3a3.19,3.19,0,0,0-.53-3.51,3.31,3.31,0,0,0-2.21-.75H91c-1.68,0-3.36,0-5,0a.66.66,0,0,0-.73.48c-1.46,3.35-2.94,6.7-4.41,10.05q-1.23,2.81-2.47,5.6c-.11.26-.14.38.22.38,1.48,0,3,0,4.45,0a.46.46,0,0,0,.49-.33c.31-.74.64-1.48,1-2.22q2.14-4.89,4.3-9.79a.47.47,0,0,1,.55-.35c1,.11,2,0,3,.07a.82.82,0,0,1,.79,1.11,5.5,5.5,0,0,1-.39.81c-.52,1.2-1,2.39-1.57,3.58-1,2.26-2,4.53-3,6.78-.13.29-.06.34.23.34,1.44,0,2.88,0,4.32,0A.67.67,0,0,0,93.49,32.34Z" transform="translate(90 27)"/><path class="cls-9" d="M103.52,28.91A1.05,1.05,0,0,1,103,29c-2.31,0-4.62,0-6.92,0a.46.46,0,0,0-.53.33c-.42,1-.86,2-1.32,3-.14.31-.14.41.25.41,1.58,0,3.16,0,4.74,0h4.2a4.54,4.54,0,0,0,.9-.06A6.83,6.83,0,0,0,109.23,29a3.18,3.18,0,0,0-.08-3.49c-1-1.5-1.91-3-2.85-4.57-.27-.44,0-.81.47-.84a5.42,5.42,0,0,1,.57,0c1.29,0,2.58,0,3.87.06a.48.48,0,0,0,.53-.33c.44-1.05.89-2.09,1.37-3.12.17-.36,0-.41-.28-.41-2.64,0-5.28,0-7.91,0a5.61,5.61,0,0,0-5.07,3.83A2.23,2.23,0,0,0,100,22c1.26,2,2.47,4.05,3.7,6.07A.52.52,0,0,1,103.52,28.91Z" transform="translate(90 27)"/><path class="cls-10" d="M44.64,54.3a2.05,2.05,0,0,1,.8.83,1.33,1.33,0,0,1-.1,1.21L40,64a1.24,1.24,0,0,1-.74.62,1.33,1.33,0,0,1-1-.27,12.12,12.12,0,0,0-3.43-1.81,12.41,12.41,0,0,0-4-.63,11.51,11.51,0,0,0-4.8,1,11.66,11.66,0,0,0-3.78,2.7,12.42,12.42,0,0,0-2.48,4,13.49,13.49,0,0,0-.89,4.9,13.29,13.29,0,0,0,.89,4.87,12.18,12.18,0,0,0,2.48,4A11.63,11.63,0,0,0,26.06,86a11.51,11.51,0,0,0,4.8,1,12.15,12.15,0,0,0,4-.65,12.3,12.3,0,0,0,3.46-1.82,1.44,1.44,0,0,1,1-.29,1.29,1.29,0,0,1,.77.57l5.43,7.82a1.24,1.24,0,0,1,.09,1.17,2.09,2.09,0,0,1-.79.8,25.42,25.42,0,0,1-6.43,3.09,23.86,23.86,0,0,1-7.26,1.1A24.33,24.33,0,0,1,7.66,68.05a24.45,24.45,0,0,1,6.25-10.76,23.36,23.36,0,0,1,4.9-3.79,24.84,24.84,0,0,1,5.8-2.45,24.71,24.71,0,0,1,13.66.19A24.76,24.76,0,0,1,44.64,54.3Z" transform="translate(90 27)"/><path class="cls-11" d="M48.42,74.51a24.18,24.18,0,0,1,3.31-12.28,24.71,24.71,0,0,1,3.8-4.94,23.42,23.42,0,0,1,4.91-3.79,24.84,24.84,0,0,1,5.8-2.45,24.42,24.42,0,0,1,12.92,0A24.63,24.63,0,0,1,85,53.5a24,24,0,0,1,8.73,8.73,25.42,25.42,0,0,1,2.45,5.82,24.42,24.42,0,0,1,0,12.92,24.83,24.83,0,0,1-2.45,5.79,24,24,0,0,1-3.8,4.89A24.93,24.93,0,0,1,85,95.45a23.8,23.8,0,0,1-5.82,2.44,24.34,24.34,0,0,1-18.72-2.44,24.72,24.72,0,0,1-8.71-8.69A23.62,23.62,0,0,1,49.28,81,24.15,24.15,0,0,1,48.42,74.51Zm12.3,0a13.27,13.27,0,0,0,.89,4.92,12,12,0,0,0,2.49,4,11.73,11.73,0,0,0,3.79,2.67,12.51,12.51,0,0,0,9.66,0,11.7,11.7,0,0,0,3.81-2.67,12.36,12.36,0,0,0,2.49-4,14,14,0,0,0,0-9.83,12.5,12.5,0,0,0-2.49-4,11.79,11.79,0,0,0-3.81-2.7,12.39,12.39,0,0,0-9.66,0,11.81,11.81,0,0,0-3.79,2.7,12.16,12.16,0,0,0-2.49,4A13.37,13.37,0,0,0,60.72,74.48Z" transform="translate(90 27)"/><path class="cls-12" d="M104.91,52.27a1.42,1.42,0,0,1,.35-1,1.28,1.28,0,0,1,1-.42h10.38a2.2,2.2,0,0,1,.93.23,2,2,0,0,1,.82.76q4,6.51,8,12.83l8,12.84V52.08a1.61,1.61,0,0,1,.51-.89,1.37,1.37,0,0,1,.89-.32h9.06a1.73,1.73,0,0,1,1.11.37,1.24,1.24,0,0,1,.44,1V96.81a1.1,1.1,0,0,1-.38.94,1.64,1.64,0,0,1-1.05.3H134.93a1,1,0,0,1-.73-.28,6.16,6.16,0,0,1-.67-.77l-8.35-13.82q-4.14-6.83-8.39-13.82V96.65a1.22,1.22,0,0,1-1.46,1.4h-9a1.3,1.3,0,0,1-1.07-.4,1.44,1.44,0,0,1-.33-1Z" transform="translate(90 27)"/><path class="cls-13" d="M157,52.27a1.42,1.42,0,0,1,.35-1,1.27,1.27,0,0,1,1-.42h10.39a2.12,2.12,0,0,1,.92.23,1.93,1.93,0,0,1,.83.76q4,6.51,8,12.83l8,12.84V52.08a1.61,1.61,0,0,1,.51-.89,1.37,1.37,0,0,1,.89-.32H197a1.74,1.74,0,0,1,1.12.37,1.27,1.27,0,0,1,.44,1V96.81a1.1,1.1,0,0,1-.38.94,1.64,1.64,0,0,1-1.05.3H187a1,1,0,0,1-.73-.28,4.86,4.86,0,0,1-.67-.77l-8.36-13.82q-4.12-6.83-8.38-13.82V96.65a1.22,1.22,0,0,1-1.46,1.4h-9a1.3,1.3,0,0,1-1.06-.4,1.44,1.44,0,0,1-.33-1Z" transform="translate(90 27)"/><path class="cls-14" d="M208.92,52.33a1.53,1.53,0,0,1,.36-1.06,1.35,1.35,0,0,1,1-.4h31.52a1.37,1.37,0,0,1,1.08.42,1.52,1.52,0,0,1,.38,1.1v7.86a1.62,1.62,0,0,1-.38,1,1.31,1.31,0,0,1-1.11.49H221.21v7.88H237.1a1.76,1.76,0,0,1,1,.28,1.12,1.12,0,0,1,.39,1v6.86a1.33,1.33,0,0,1-.34.86,1.3,1.3,0,0,1-1,.41H221.21v8.13h21.35A1.28,1.28,0,0,1,244,88.61v8a.82.82,0,0,1-.25.57c-.09.6-.52.89-1.31.89H210.31a1.48,1.48,0,0,1-1-.33,1.32,1.32,0,0,1-.38-1Z" transform="translate(90 27)"/><path class="cls-15" d="M287.8,54.3a2,2,0,0,1,.79.83,1.32,1.32,0,0,1-.09,1.21L283.13,64a1.23,1.23,0,0,1-.75.62,1.34,1.34,0,0,1-1-.27A12,12,0,0,0,278,62.5a12.37,12.37,0,0,0-4-.63,11.51,11.51,0,0,0-4.8,1,11.66,11.66,0,0,0-3.78,2.7,12.4,12.4,0,0,0-2.47,4,13.28,13.28,0,0,0-.89,4.9,13.09,13.09,0,0,0,.89,4.87,12.15,12.15,0,0,0,2.47,4A11.63,11.63,0,0,0,269.21,86a11.51,11.51,0,0,0,4.8,1,12.11,12.11,0,0,0,4-.65,12.36,12.36,0,0,0,3.47-1.82,1.44,1.44,0,0,1,.95-.29,1.27,1.27,0,0,1,.76.57l5.44,7.82a1.24,1.24,0,0,1,.09,1.17,2.09,2.09,0,0,1-.79.8,25.32,25.32,0,0,1-6.44,3.09,23.81,23.81,0,0,1-7.26,1.1,24.15,24.15,0,0,1-6.46-.86,23.83,23.83,0,0,1-5.8-2.44,24.58,24.58,0,0,1-8.7-8.69A23.62,23.62,0,0,1,250.82,81a24.36,24.36,0,0,1,2.45-18.74,24.66,24.66,0,0,1,3.79-4.94A23.68,23.68,0,0,1,262,53.5a24.66,24.66,0,0,1,5.8-2.45,24.71,24.71,0,0,1,13.66.19A24.92,24.92,0,0,1,287.8,54.3Z" transform="translate(90 27)"/><path class="cls-16" d="M294,52.27a1.3,1.3,0,0,1,.43-1,1.53,1.53,0,0,1,1.07-.39h34.18a1.64,1.64,0,0,1,1,.35,1.43,1.43,0,0,1,.5,1.05v7.88a1.83,1.83,0,0,1-.39,1.1,1.33,1.33,0,0,1-1.13.52h-11V96.56a1.53,1.53,0,0,1-.41,1,1.39,1.39,0,0,1-1.08.46H307.9a1.47,1.47,0,0,1-1-.43,1.36,1.36,0,0,1-.48-1.06V61.77H295.49a1.5,1.5,0,0,1-1.07-.41,1.64,1.64,0,0,1-.43-1.21Z" transform="translate(90 27)"/></svg>