<svg width="49" height="49" viewBox="0 0 49 49" fill="none" xmlns="http://www.w3.org/2000/svg">
<path d="M24.5 0C10.969 0 0 10.969 0 24.5C0 38.031 10.969 49 24.5 49C38.031 49 49 38.031 49 24.5C49 10.969 38.031 0 24.5 0V0ZM27.0624 34.034C27.0624 35.1616 26.1399 36.0841 25.0123 36.0841H23.9873C22.8596 36.0841 21.9371 35.1616 21.9371 34.034V33.0787C21.9371 31.9511 22.8596 31.0285 23.9873 31.0285H25.0123C26.1399 31.0285 27.0624 31.9511 27.0624 33.0787V34.034ZM27.0624 24.8019C27.0624 25.9295 26.1399 26.852 25.0123 26.852H23.9873C22.8596 26.852 21.9371 25.9295 21.9371 24.8019L21.9368 13.1215C21.9368 11.9939 22.8593 11.0714 23.9869 11.0714H25.012C26.1396 11.0714 27.0621 11.9939 27.0621 13.1215L27.0624 24.8019Z" fill="#248FBC"/>
</svg>
