<svg width="55" height="55" viewBox="0 0 55 55" fill="none" xmlns="http://www.w3.org/2000/svg">
<path d="M1.52112 14.4088H5.83864C6.01205 15.247 6.34707 16.0438 6.82504 16.7536L3.76885 19.8103C3.50043 20.1071 3.3522 20.4933 3.3522 20.8937C3.3522 21.2937 3.50043 21.6799 3.76885 21.9772C4.06042 22.2586 4.44702 22.4202 4.85231 22.43C5.25759 22.4202 5.64419 22.2586 5.93577 21.9772L8.97616 18.921V18.9206C9.69169 19.388 10.486 19.7222 11.321 19.9074V24.2737C11.321 24.8223 11.6138 25.3295 12.0889 25.604C12.5644 25.8785 13.15 25.8785 13.6251 25.604C14.1006 25.3295 14.3934 24.8223 14.3934 24.2737V19.9074C15.2295 19.7267 16.0246 19.3925 16.7382 18.9206L19.7948 21.9772C20.0864 22.2586 20.473 22.4202 20.8783 22.43C21.2831 22.4202 21.6702 22.2586 21.9617 21.9772C22.2298 21.6799 22.3784 21.2937 22.3784 20.8937C22.3784 20.4933 22.2298 20.1071 21.9617 19.8103L18.9051 16.7537C19.377 16.0402 19.7112 15.245 19.8919 14.4089H24.2582C24.8068 14.4089 25.314 14.1161 25.5886 13.6405C25.8631 13.1654 25.8631 12.5798 25.5886 12.1043C25.3141 11.6292 24.8069 11.3364 24.2582 11.3364H19.8919C19.7088 10.4962 19.3746 9.69625 18.9051 8.9754L21.9613 5.935H21.9617C22.3037 5.53988 22.421 4.99816 22.2736 4.49663C22.1262 3.99551 21.7343 3.60322 21.2328 3.4562C20.7317 3.30879 20.19 3.42615 19.7948 3.76808L16.7382 6.84059C16.0284 6.36262 15.2316 6.0276 14.3934 5.8542V1.53667C14.3934 0.987638 14.1006 0.480442 13.6251 0.205886C13.15 -0.0686287 12.5644 -0.0686287 12.0889 0.205886C11.6137 0.480401 11.321 0.987607 11.321 1.53667V5.8542C10.4816 6.03166 9.68152 6.36059 8.95994 6.82434L5.91955 3.78437C5.53539 3.40021 4.97539 3.24996 4.45071 3.39046C3.92563 3.53137 3.51589 3.94112 3.37494 4.46623C3.23443 4.9909 3.38468 5.55094 3.76885 5.93507L6.80882 8.99168C6.34669 9.70802 6.01816 10.5027 5.83868 11.3365H1.52115C1.01232 11.3889 0.562769 11.691 0.322394 12.1426C0.0819884 12.5937 0.0819884 13.1355 0.322394 13.5867C0.5628 14.0382 1.01234 14.3404 1.52115 14.3928L1.52112 14.4088Z" fill="#248FBC"/>
<path d="M37.1946 40.4454C38.1976 34.6339 40.2293 29.0483 43.1942 23.9502C46.8977 25.7776 46.2671 30.7421 46.2346 30.9524C46.1936 31.3475 46.2995 31.7442 46.5322 32.0663C46.7645 32.3883 47.1077 32.6137 47.4959 32.699H47.7383C48.1026 32.699 48.4547 32.5686 48.7304 32.331C49.0065 32.0939 49.1881 31.7654 49.2425 31.4052C49.77 28.2519 48.8291 25.0304 46.6874 22.6564C48.6249 23.0653 50.3487 24.1625 51.5389 25.7451C51.8256 26.1362 52.2829 26.3648 52.7677 26.3599C53.0902 26.3603 53.4057 26.2649 53.6733 26.085C53.9832 25.8336 54.1895 25.4767 54.2524 25.0828C54.3149 24.6885 54.2297 24.2852 54.0128 23.9501C52.1354 21.3187 49.1564 19.6919 45.9272 19.5355C47.5812 18.4744 49.5613 18.0439 51.5065 18.3225C51.904 18.3631 52.3024 18.2547 52.6249 18.0188C52.9473 17.7828 53.171 17.436 53.2531 17.045C53.3229 16.6454 53.2283 16.2344 52.9907 15.9055C52.7532 15.5769 52.393 15.3576 51.9918 15.2984C49.1435 14.8525 46.235 15.5562 43.9061 17.2553C42.7784 14.5536 40.6099 12.4199 37.8903 11.3365C37.3847 11.1314 36.8081 11.2114 36.3776 11.5468C35.9472 11.8819 35.7283 12.4216 35.8038 12.9616C35.8789 13.5021 36.2363 13.9614 36.7419 14.1665C38.5632 14.919 40.0466 16.3107 40.9141 18.08C38.0592 16.5962 34.6838 16.4951 31.745 17.8051C31.3312 17.9347 30.9917 18.2331 30.8097 18.627C30.6278 19.021 30.6213 19.4729 30.7911 19.8722C30.9604 20.2713 31.291 20.58 31.7007 20.7221C32.1104 20.8646 32.5612 20.8269 32.9418 20.619C34.7619 19.8774 36.7878 19.8141 38.6502 20.4411C35.5676 21.3832 33.0839 23.6821 31.9066 26.6831C31.7584 27.0584 31.7657 27.477 31.9265 27.8474C32.0874 28.2173 32.3887 28.5081 32.7639 28.6559C32.9422 28.7338 33.1355 28.7724 33.33 28.7692C33.6325 28.7594 33.9265 28.6648 34.1783 28.4963C34.4297 28.3273 34.6291 28.0914 34.7529 27.8153C34.8337 27.6212 36.5158 23.6106 40.1219 23.3036V23.3032C37.2042 28.4788 35.2017 34.1192 34.2031 39.9762C31.9773 39.6911 29.7361 39.5397 27.492 39.5234C12.0801 39.5234 0 45.6525 0 53.4799V53.4795C0.0231476 53.8755 0.190859 54.2487 0.47106 54.5289C0.751262 54.8091 1.12446 54.9768 1.52042 55H53.4626C53.8585 54.9768 54.2317 54.8091 54.512 54.5289C54.7922 54.2487 54.9599 53.8755 54.983 53.4795C54.983 47.3992 47.6897 42.3538 37.1946 40.4451L37.1946 40.4454Z" fill="#248FBC"/>
</svg>
