<svg width="68" height="18" viewBox="0 0 68 18" fill="none" xmlns="http://www.w3.org/2000/svg">
<path d="M11.3087 6.65316C11.2598 6.54799 11.2598 6.49312 11.362 6.43825L11.837 6.11359C12.7419 5.51211 13.4516 4.64589 13.875 3.62609C14.1414 2.9219 14.5055 2.21772 14.763 1.51354C14.9717 1.02884 15.1804 0.484698 15.3935 0H8.00088C7.30522 0.120952 6.64905 0.416054 6.09009 0.859364C5.53112 1.30267 5.08646 1.88061 4.79519 2.54238L0.0665737 13.5807C-0.0399865 13.8505 -0.0399863 13.8505 0.226414 13.8505H6.58007C7.22706 13.8469 7.86509 13.6944 8.44742 13.404C9.02976 13.1137 9.54165 12.6928 9.9456 12.1723C10.7236 11.1728 11.2797 10.0101 11.5751 8.76571C11.7146 8.42047 11.7634 8.04351 11.7166 7.67269C11.6699 7.30187 11.5292 6.95026 11.3087 6.65316ZM8.15627 9.0355C7.94759 9.57507 7.73891 10.0643 7.52579 10.6039C7.44387 10.8093 7.3232 10.9958 7.17077 11.1528C7.01834 11.3098 6.83719 11.4341 6.63779 11.5184C6.48768 11.5809 6.32875 11.618 6.16715 11.6282H4.32899C4.11587 11.6282 4.11587 11.5733 4.16915 11.4133L5.43899 8.49593C5.45675 8.42619 5.49852 8.36548 5.55651 8.3251C5.61451 8.28472 5.68478 8.26743 5.75423 8.27644H6.75323C7.04865 8.30367 7.34583 8.30367 7.64124 8.27644C8.05416 8.22614 8.36939 8.49593 8.15627 9.0355ZM10.8913 2.59725C10.5761 3.35173 10.2608 4.05591 9.9456 4.81497C9.8462 5.11187 9.6509 5.36466 9.3923 5.53111C9.13371 5.69755 8.82749 5.76758 8.52479 5.72949H6.74879C6.64223 5.72949 6.58895 5.72949 6.64223 5.56945C6.95748 4.8104 7.27272 4.05134 7.64124 3.28314C7.7539 2.98507 7.95913 2.73375 8.22496 2.56834C8.49078 2.40292 8.80226 2.3327 9.11088 2.36862H10.8469C10.9446 2.45092 10.9934 2.45092 10.8913 2.59725Z" fill="#248FBC"/>
<path d="M32.8792 6.37189C32.94 6.17308 32.9514 5.962 32.9125 5.75758C32.8735 5.55315 32.7855 5.36176 32.6561 5.20053C32.5268 5.03931 32.3603 4.91329 32.1714 4.83376C31.9825 4.75423 31.7773 4.72367 31.574 4.74483C29.5161 4.79803 27.4539 4.74483 25.3961 4.74483C24.529 4.7005 23.6789 5.00091 23.025 5.58274C22.5182 6.08737 22.1158 6.69037 21.8416 7.35611C21.0208 9.19154 20.197 11.027 19.3704 12.8624C19.3449 12.9108 19.3315 12.9649 19.3315 13.0198C19.3315 13.0747 19.3449 13.1288 19.3704 13.1772C19.6793 13.9131 19.936 14.6491 20.2405 15.3939C20.5451 16.1387 20.8105 16.7594 21.0672 17.4953C21.1194 17.3889 21.1194 17.3357 21.1672 17.2825C21.6023 16.285 22.0374 15.3407 22.4724 14.3476C23.299 12.5077 24.1213 10.6191 24.8914 8.78367C24.9799 8.53989 25.1434 8.3318 25.3574 8.19039C25.5714 8.04898 25.8246 7.98184 26.0791 7.99895H27.467C27.9803 7.99895 28.137 8.26052 27.9325 8.73046C27.728 9.20041 27.467 9.78118 27.2625 10.3043C27.1732 10.558 27.0029 10.7738 26.7788 10.9169C26.5547 11.06 26.2899 11.1222 26.0269 11.0935H24.378V11.1467C24.7913 12.1442 25.1524 13.1905 25.5614 14.188C25.6136 14.2412 25.6136 14.2944 25.718 14.2944C26.4881 14.2412 27.2103 14.3964 27.9803 14.188C28.4303 14.1163 28.857 13.9361 29.2248 13.6623C29.5926 13.3885 29.8909 13.0292 30.0948 12.6141C30.917 10.7255 31.7393 8.89007 32.5659 7.00143C32.7288 6.8275 32.8377 6.60854 32.8792 6.37189V6.37189Z" fill="#248FBC"/>
<path d="M19.1448 11.9804H14.2003C13.9915 11.9804 13.8361 11.8229 13.9382 11.6114C13.9915 11.5033 13.9915 11.4493 14.0449 11.3413C14.0901 11.1959 14.182 11.07 14.306 10.9836C14.4299 10.8971 14.5788 10.8551 14.729 10.8642H19.5624C19.7224 10.8642 19.7757 10.8102 19.8778 10.6527C20.1933 9.9055 20.5087 9.15834 20.8774 8.36168C21.1395 7.72255 21.4549 7.0114 21.7215 6.39027C22.0369 5.5891 21.7215 4.73842 20.6153 4.73842C19.0915 4.79244 17.5678 4.73842 16.044 4.73842C15.4351 4.73316 14.8387 4.91307 14.3318 5.25489C13.825 5.59671 13.431 6.08472 13.2008 6.65582C12.4678 8.09612 11.8902 9.58593 11.2594 11.0757C11.0493 11.4823 10.884 11.9109 10.7663 12.354C10.7283 12.5354 10.7311 12.7232 10.7744 12.9034C10.8177 13.0836 10.9004 13.2516 11.0164 13.3951C11.1324 13.5385 11.2787 13.6537 11.4446 13.7322C11.6105 13.8106 11.7916 13.8503 11.9747 13.8483H18.2341C18.2895 13.8557 18.3457 13.8437 18.3934 13.8142C18.4411 13.7847 18.4774 13.7396 18.4962 13.6863C18.7091 13.1219 18.9538 12.5704 19.2292 12.0344C19.3003 12.0344 19.3003 11.9804 19.1448 11.9804ZM15.2532 8.51921C15.4131 8.14563 15.5686 7.77656 15.7774 7.34897C15.841 7.22033 15.9387 7.11219 16.0595 7.03666C16.1804 6.96113 16.3196 6.92121 16.4616 6.92138H18.0387C18.3541 6.92138 18.4607 7.08341 18.3541 7.34897C18.2022 7.76965 18.0272 8.18139 17.8299 8.58223C17.7765 8.69025 17.7232 8.69025 17.6211 8.69025H15.3065C15.2532 8.73526 15.2088 8.68125 15.2532 8.51921V8.51921Z" fill="#248FBC"/>
<path d="M39.4794 11.9202H34.5786C34.4227 11.9202 34.3158 11.8707 34.3158 11.6545C34.3146 11.5424 34.3355 11.4312 34.3774 11.3274C34.4193 11.2236 34.4813 11.1293 34.5597 11.0501C34.6382 10.9708 34.7315 10.9082 34.8342 10.8658C34.9369 10.8235 35.0469 10.8023 35.1578 10.8035H40.0096C40.1655 10.8035 40.2189 10.8035 40.2724 10.6414C40.8516 9.20503 41.4842 7.81819 42.1169 6.38181C42.2322 6.09687 42.2692 5.7857 42.2238 5.48126C42.1703 5.00397 41.7471 4.73831 41.1679 4.73831H36.0488C35.4976 4.84562 34.9799 5.0853 34.5395 5.43715C34.0991 5.78901 33.7488 6.24272 33.5183 6.76004C32.7832 8.36302 32.097 9.96149 31.4109 11.56C31.2448 11.8895 31.1549 12.2528 31.1481 12.6226C31.1361 12.7865 31.1593 12.9512 31.2159 13.1052C31.2726 13.2593 31.3615 13.3992 31.4765 13.5155C31.5915 13.6317 31.7299 13.7215 31.8824 13.7788C32.0348 13.8361 32.1977 13.8595 32.3599 13.8474H38.6329C38.7021 13.8574 38.7726 13.8414 38.8309 13.8024C38.8892 13.7634 38.9313 13.7041 38.9492 13.6357C39.1631 13.1044 39.4259 12.5686 39.6353 12.0373C39.7422 11.9202 39.7422 11.9202 39.4794 11.9202ZM35.6746 8.45758C35.8305 8.08385 35.9909 7.71462 36.2003 7.28686C36.2637 7.15785 36.3615 7.04937 36.4828 6.97375C36.6041 6.89814 36.7439 6.85842 36.8864 6.8591H38.5215C38.8378 6.8591 38.9403 7.0212 38.8378 7.28686C38.6774 7.66059 38.5215 8.08385 38.3611 8.45758C38.3076 8.56564 38.2542 8.56564 38.1517 8.56564H35.884C35.6746 8.67371 35.6301 8.61968 35.6746 8.45758Z" fill="#248FBC"/>
<path d="M67.3017 5.78631C67.2806 5.506 67.1549 5.24355 66.9491 5.05019C66.7433 4.85684 66.4722 4.74646 66.1886 4.74063H60.3195C60.2643 4.73303 60.2082 4.74424 60.1603 4.77242C60.1123 4.80059 60.0755 4.84406 60.0558 4.89571C59.8457 5.42298 59.582 5.99899 59.3137 6.52183C59.2646 6.68134 59.2646 6.73008 59.421 6.73008H63.6005C64.1816 6.73008 64.1816 6.78325 63.9715 7.31052C63.9134 7.45626 63.8105 7.58012 63.6772 7.66445C63.544 7.74878 63.3873 7.78928 63.2295 7.78019H61.589C61.0962 7.80677 60.6022 7.80677 60.1094 7.78019C59.1037 7.67828 57.7805 8.66636 57.4274 9.55253C57.2173 10.1285 56.8999 10.7046 56.6898 11.2806C56.4278 11.7129 56.2646 12.1969 56.2116 12.6984C56.1947 12.8338 56.2065 12.9711 56.2463 13.1016C56.2861 13.2322 56.3529 13.353 56.4426 13.4565C56.5322 13.5599 56.6426 13.6437 56.7668 13.7024C56.891 13.761 57.0262 13.7934 57.1637 13.7973H57.7448C59.7563 13.7973 61.8214 13.7973 63.8285 13.8505C63.9894 13.8505 64.043 13.8505 64.1458 13.6909C65.098 11.542 66.0501 9.44619 66.9486 7.3504C67.184 6.86219 67.3047 6.32743 67.3017 5.78631ZM62.0673 11.573C62.0136 11.6793 61.96 11.6793 61.8527 11.6793H59.8457C59.7919 11.6795 59.7389 11.6669 59.6911 11.6426C59.6433 11.6182 59.6021 11.5829 59.571 11.5394C59.5399 11.496 59.5198 11.4458 59.5124 11.393C59.5049 11.3402 59.5104 11.2865 59.5283 11.2363C59.6457 10.9122 59.7862 10.5969 59.9485 10.2925C60.018 10.1863 60.1116 10.0978 60.2218 10.0339C60.3321 9.97008 60.4558 9.93267 60.5832 9.92472H62.702C62.5714 10.5015 62.3576 11.0566 62.0673 11.573V11.573Z" fill="#248FBC"/>
<path d="M47.4636 13.5238C47.8346 12.6838 48.1519 11.8926 48.5183 11.1059C49.1038 9.77257 49.6848 8.4392 50.306 7.10584C50.4531 6.79007 50.5064 6.4391 50.4597 6.09423C50.413 5.74935 50.2682 5.42492 50.0423 5.15912C49.7021 4.87365 49.2671 4.72467 48.8223 4.74133H43.2849C43.1947 4.73018 43.1033 4.75013 43.026 4.79784C42.9488 4.84556 42.8903 4.91816 42.8603 5.00356C42.0693 6.84361 41.2201 8.68365 40.4291 10.5237C39.9509 11.5771 39.5353 12.5771 39.0526 13.6349C38.9989 13.7905 38.999 13.8438 39.1599 13.8438H41.5911C41.6469 13.852 41.7039 13.8405 41.752 13.8112C41.8002 13.782 41.8366 13.7369 41.8548 13.6838C42.0157 13.266 42.2257 12.8971 42.3866 12.4749L44.7821 7.09695C44.8017 7.03048 44.8443 6.97304 44.9023 6.93481C44.9604 6.89657 45.0302 6.88001 45.0994 6.88805C45.6804 6.94139 46.2122 6.88805 46.7932 6.94139C46.8717 6.93398 46.9507 6.94733 47.0223 6.98009C47.0939 7.01285 47.1555 7.06386 47.2009 7.12794C47.2463 7.19202 47.2738 7.2669 47.2807 7.34497C47.2876 7.42305 47.2736 7.50155 47.2402 7.57251C47.1797 7.71711 47.1079 7.85679 47.0256 7.9903C46.7619 8.62143 46.4446 9.32367 46.181 9.93702C45.6536 11.1993 45.0681 12.4082 44.5408 13.6705C44.4871 13.8305 44.4871 13.8838 44.648 13.8305H47.0256C47.116 13.8123 47.2016 13.7756 47.277 13.7228C47.3524 13.6701 47.4159 13.6023 47.4636 13.5238Z" fill="#248FBC"/>
<path d="M53.0619 11.7147C52.9803 11.7552 52.8904 11.7742 52.8001 11.7702H49.019C48.9643 11.7623 48.9085 11.774 48.8609 11.8034C48.8134 11.8329 48.7768 11.8783 48.7572 11.9322C48.5458 12.5139 48.2998 13.0812 48.0205 13.6309C47.9185 13.7975 47.9717 13.8484 48.1803 13.8484H53.0619C53.2218 13.8568 53.3819 13.8396 53.5368 13.7975C54.1009 13.6779 54.6324 13.429 55.093 13.0687C55.5535 12.7085 55.9314 12.246 56.1995 11.7147C56.3715 11.405 56.458 11.0517 56.4494 10.6938C56.4408 10.336 56.3374 9.98769 56.1507 9.68738L54.5752 7.05838C54.4155 6.7853 54.522 6.59553 54.8371 6.56313H55.1477C55.8312 6.56313 56.5634 6.56313 57.2468 6.61867C57.4066 6.61867 57.4599 6.56313 57.5619 6.40113C57.8238 5.79943 58.0368 5.19772 58.2986 4.59138C58.4051 4.37384 58.3519 4.37384 58.1388 4.37384H53.8164C53.198 4.41453 52.6047 4.64369 52.11 5.03287C51.6154 5.42206 51.2412 5.95415 51.0338 6.56313C50.9725 6.73336 50.9502 6.91619 50.9687 7.09701C50.9872 7.27783 51.046 7.45163 51.1403 7.60455C51.8179 8.75859 52.4998 9.90955 53.1862 11.0574C53.3282 11.4416 53.3282 11.6221 53.0619 11.7147Z" fill="#248FBC"/>
</svg>
