<svg width="24" height="62" viewBox="0 0 24 62" fill="none" xmlns="http://www.w3.org/2000/svg">
<path d="M18.2825 1.58991C18.7275 1.58991 19.0772 1.2402 19.0772 0.795222C19.0772 0.349707 18.7275 0 18.2825 0H5.56471C5.11973 0 4.77002 0.349707 4.77002 0.794691C4.77002 1.23967 5.11973 1.58938 5.56471 1.58938L18.2825 1.58991Z" fill="#248FBC"/>
<path d="M0 34.179V62H23.8462V34.179C23.8462 29.9501 21.5568 25.992 17.8846 23.8618C17.6462 23.7186 17.487 23.4642 17.487 23.1784V3.17893H6.35861V23.1784C6.35861 23.4647 6.19946 23.7186 5.961 23.8618C2.28937 25.9926 0 29.9512 0 34.1796V34.179ZM11.2236 33.7819C11.51 33.289 12.3366 33.289 12.6064 33.7819C13.0993 34.6724 17.4709 42.5416 17.4709 45.3074C17.4709 48.3755 14.9751 50.8713 11.907 50.8713C8.83889 50.8713 6.34308 48.3755 6.34308 45.3074C6.35905 42.5411 10.7306 34.6719 11.2235 33.7819H11.2236Z" fill="#248FBC"/>
<path d="M11.9233 49.2825C14.1174 49.2825 15.8978 47.5021 15.8978 45.3079C15.8978 43.734 13.7198 39.1713 11.9233 35.8328C10.1268 39.1713 7.94873 43.734 7.94873 45.3079C7.94873 47.5021 9.72915 49.2825 11.9233 49.2825V49.2825Z" fill="#248FBC"/>
</svg>
