<svg width="46" height="47" viewBox="0 0 46 47" fill="none" xmlns="http://www.w3.org/2000/svg">
<path d="M44.3884 0H1.56638C0.678653 0 0 0.678998 0 1.56675V9.92246C0 10.7581 0.678998 11.4892 1.56675 11.4892H44.3888C45.2765 11.4892 45.9556 10.7581 45.9556 9.92246L45.9552 1.56675C45.9552 0.679026 45.2766 0 44.3888 0H44.3884Z" fill="#248FBC"/>
<path d="M42.8219 13.5778H3.13316C2.24543 13.5778 1.56641 14.2568 1.56641 15.1445V42.8222C1.56641 45.1201 3.4464 47.0001 5.74426 47.0001H40.2108C42.5086 47.0001 44.3886 45.1201 44.3886 42.8222V15.1445C44.3886 14.2568 43.7096 13.5782 42.8219 13.5782V13.5778ZM31.333 20.8887C31.333 22.612 29.923 24.0222 28.1995 24.0222H17.7551C16.0318 24.0222 14.6216 22.6121 14.6216 20.8887C14.6216 19.1653 16.0317 17.7552 17.7551 17.7552H28.1995C29.9229 17.7552 31.333 19.1653 31.333 20.8887V20.8887Z" fill="#248FBC"/>
</svg>
