<svg width="48" height="48" viewBox="0 0 48 48" fill="none" xmlns="http://www.w3.org/2000/svg">
<path d="M30.2222 0V47.4921H47.9999V6.38071L30.2222 0ZM36.8451 43.6349H33.8238V38.9591H36.8451V43.6349ZM36.8451 32.8801H33.8238V28.2043H36.8451V32.8801ZM36.8451 22.2427H33.8238V17.5669H36.8451V22.2427ZM36.8451 11.4879H33.8238L33.8242 6.69537H36.8455L36.8451 11.4879ZM44.2817 43.6349H41.2604V38.9591H44.2817V43.6349ZM44.2817 32.8801H41.2604V28.2043H44.2817V32.8801ZM44.2817 22.2427H41.2604V17.5669H44.2817V22.2427Z" fill="#248FBC"/>
<path d="M20.8252 47.4921H27.174L27.1744 9.65081H20.8256L20.8252 47.4921Z" fill="#248FBC"/>
<path d="M0 6.38071V47.4921H17.7778V0L0 6.38071ZM6.73917 43.6349H3.71829V38.9591H6.73954V43.6349H6.73917ZM6.73917 32.8801H3.71829V28.2043H6.73954V32.8801H6.73917ZM6.73917 22.2427H3.71829V17.5669H6.73954V22.2427H6.73917ZM14.1757 43.6349H11.1545V38.9591H14.1757V43.6349ZM14.1757 32.8801H11.1545V28.2043H14.1757V32.8801ZM14.1757 22.2427H11.1545V17.5669H14.1757V22.2427ZM14.1757 11.4879H11.1545L11.1548 6.69537H14.1761L14.1757 11.4879Z" fill="#248FBC"/>
</svg>
