<svg width="44" height="38" viewBox="0 0 44 38" fill="none" xmlns="http://www.w3.org/2000/svg">
<path d="M27.5815 20.6183C27.5815 23.8253 24.9819 26.4249 21.7749 26.4249C18.5678 26.4249 15.9683 23.8253 15.9683 20.6183C15.9683 17.4112 18.5678 14.8116 21.7749 14.8116C24.9819 14.8116 27.5815 17.4112 27.5815 20.6183Z" fill="#248FBC"/>
<path fill-rule="evenodd" clip-rule="evenodd" d="M33.5116 5.40402C33.1178 5.40402 32.801 5.08859 32.7414 4.69946C32.3332 2.03821 30.0337 0 27.2584 0H16.2911C13.5157 0 11.2163 2.03821 10.808 4.69946C10.7485 5.0886 10.4317 5.40402 10.0379 5.40402H7.25827C3.24953 5.40402 0 8.65391 0 12.6623V30.7417C0 34.7508 3.24953 38 7.25827 38H36.2913C40.3001 38 43.5496 34.7508 43.5496 30.7417V12.6623C43.5496 8.65391 40.3001 5.40402 36.2913 5.40402H33.5116ZM32.6621 20.6183C32.6621 26.6311 27.7875 31.5057 21.7747 31.5057C15.7618 31.5057 10.8872 26.6311 10.8872 20.6183C10.8872 14.6054 15.7618 9.73085 21.7747 9.73085C27.7875 9.73085 32.6621 14.6054 32.6621 20.6183Z" fill="#248FBC"/>
</svg>
