<svg width="48" height="53" viewBox="0 0 48 53" fill="none" xmlns="http://www.w3.org/2000/svg">
<path d="M12.0637 15.0794C12.0637 16.5873 13.5716 17.3413 14.3256 17.3413H23.3732C23.3732 17.3413 23.3732 17.3413 24.1272 17.3413H32.4208C33.9287 17.3413 34.6827 16.5873 34.6827 15.0794L36.9446 3.01587C36.9446 2.2619 36.9446 1.50794 36.1906 0.753968C35.4367 1.68525e-07 34.6827 0 33.9287 0H23.3732H12.8176C12.0637 0 11.3097 1.68525e-07 10.5557 0.753968C9.80176 1.50794 9.80176 2.2619 9.80176 3.01587L12.0637 15.0794Z" fill="#248FBC"/>
<path d="M27.8969 19.6032H18.8492C18.0953 19.6032 17.3413 20.3572 17.3413 21.1111C17.3413 21.8651 18.0953 22.6191 18.8492 22.6191H27.8969C28.6508 22.6191 29.4048 21.8651 29.4048 21.1111C29.4048 20.3572 28.6508 19.6032 27.8969 19.6032Z" fill="#248FBC"/>
<path d="M27.8969 24.127H18.8492C18.0953 24.127 17.3413 24.881 17.3413 25.6349C17.3413 26.3889 18.0953 26.3889 18.8492 26.3889H27.8969C28.6508 26.3889 29.4048 25.6349 29.4048 24.881C29.4048 24.127 28.6508 24.127 27.8969 24.127Z" fill="#248FBC"/>
<path d="M33.9288 29.4048H12.8177C10.5558 29.4048 9.04785 30.9127 9.04785 33.1746C9.04785 35.4365 10.5558 36.9444 12.8177 36.9444H21.8653V48.254C19.6034 48.254 16.5875 48.254 15.0796 48.254C12.0637 49.0079 10.5558 49.0079 10.5558 50.5159C10.5558 52.0238 12.0637 52.0238 15.0796 52.7778C17.3415 52.7778 20.3574 52.7778 23.3732 52.7778C26.3891 52.7778 29.405 52.7778 31.6669 52.7778C34.6828 52.7778 36.1907 52.0238 36.1907 50.5159C36.1907 49.0079 34.6828 49.0079 31.6669 48.254C29.405 48.254 27.1431 48.254 24.8812 48.254V36.9444H33.9288C36.1907 36.9444 37.6986 35.4365 37.6986 33.1746C37.6986 30.9127 36.1907 29.4048 33.9288 29.4048Z" fill="#248FBC"/>
<path d="M44.4839 18.0952H40.7141C39.2061 18.0952 38.4521 18.8492 38.4521 20.3571C38.4521 21.8651 39.2061 22.6191 40.7141 22.6191H41.468V30.1587H39.9601C39.2061 30.1587 38.4521 30.9127 38.4521 31.6667C38.4521 32.4206 39.2061 33.1746 39.9601 33.1746H42.976C43.7299 33.1746 44.4839 32.4206 44.4839 31.6667V22.6191H45.2379C46.7458 22.6191 47.4998 21.8651 47.4998 20.3571C46.7458 18.8492 45.9918 18.0952 44.4839 18.0952Z" fill="#248FBC"/>
<path d="M6.03175 18.0952H2.26191C0.753969 18.0952 0 18.8492 0 20.3571C0 21.8651 0.753969 22.6191 2.26191 22.6191H3.01587V31.6667C3.01587 32.4206 3.76984 33.1746 4.52381 33.1746H7.53968C8.29365 33.1746 9.04762 32.4206 9.04762 31.6667C9.04762 30.9127 8.29365 30.1587 7.53968 30.1587H5.27778V22.6191H6.78571C7.53968 22.6191 8.29365 21.8651 8.29365 20.3571C8.29365 18.8492 7.53968 18.0952 6.03175 18.0952Z" fill="#248FBC"/>
</svg>
