<svg width="38" height="49" viewBox="0 0 38 49" fill="none" xmlns="http://www.w3.org/2000/svg">
<path fill-rule="evenodd" clip-rule="evenodd" d="M0.977925 0.000189729H28.2199V6.84642C28.2199 8.46484 29.5361 9.78029 31.1538 9.78029H38V47.1423C38 47.681 37.5603 48.12 37.0223 48.12H0.977735C0.439008 48.12 9.36606e-07 47.681 9.36606e-07 47.1423V0.977735C-0.000740646 0.439008 0.438989 0 0.977735 0L0.977925 0.000189729ZM30.1761 0.0850955V6.84638C30.1761 7.3851 30.6151 7.82411 31.1539 7.82411H37.9155C37.8681 7.71992 37.801 7.62463 37.7138 7.53788L30.4624 0.286451C30.3756 0.199692 30.2796 0.132582 30.1762 0.0851239L30.1761 0.0850955ZM7.73598 33.2109H30.2644C30.8046 33.2109 31.2421 32.7731 31.2421 32.2332C31.2421 31.693 30.8043 31.2555 30.2644 31.2555L7.73598 31.2551C7.19577 31.2551 6.75824 31.693 6.75824 32.2328C6.7575 32.773 7.19538 33.211 7.73598 33.211V33.2109ZM7.73598 42.2017H30.2644C30.8046 42.2017 31.2421 41.7638 31.2421 41.224C31.2421 40.6838 30.8043 40.2462 30.2644 40.2462L7.73598 40.2459C7.19577 40.2459 6.75824 40.6838 6.75824 41.2236C6.7575 41.7634 7.19538 42.2017 7.73598 42.2017V42.2017ZM7.73598 37.7062H30.2644C30.8046 37.7062 31.2421 37.2683 31.2421 36.7285C31.2421 36.1882 30.8043 35.7507 30.2644 35.7507H7.73598C7.19577 35.7507 6.75824 36.1886 6.75824 36.7285C6.7575 37.2683 7.19538 37.7062 7.73598 37.7062ZM17.7535 7.70689V15.7155H25.762C25.3086 11.5047 21.9642 8.15992 17.7535 7.70689ZM25.762 17.6712H19.1364L23.8207 22.3555C24.8755 21.0448 25.5718 19.4343 25.762 17.6712V17.6712ZM22.4378 23.7385L15.7973 17.098V7.70651C11.2654 8.19444 7.73645 12.0311 7.73645 16.6928C7.73645 21.6849 11.7834 25.7321 16.7757 25.7321C18.9188 25.7321 20.8883 24.9854 22.4377 23.7385H22.4378Z" fill="#248FBC"/>
</svg>
