<svg width="30" height="51" viewBox="0 0 30 51" fill="none" xmlns="http://www.w3.org/2000/svg">
<path d="M0.00120412 25.8402C2.95479 23.7043 5.96177 22.61 8.96874 22.61H9.05368C11.9757 22.6313 14.1111 23.6723 15.9917 24.5861C17.798 25.4573 19.3597 26.2226 21.3466 26.01C24.2579 25.7019 27.0738 23.3539 29.7299 19.0826L29.7304 11.6874H0.000976562L0.00120412 25.8402Z" fill="#248FBC"/>
<path d="M3.06107 50.3943C3.24161 50.7661 3.61338 51 4.02783 51H25.703C26.1175 51 26.4892 50.7661 26.6591 50.405L28.9226 45.6873H0.79834L3.06107 50.3943Z" fill="#248FBC"/>
<path d="M21.5692 36.0289C18.9767 36.305 16.9897 35.3383 15.0665 34.4031C13.3029 33.5426 11.4859 32.6603 9.04187 32.6395C6.07759 32.6182 3.01722 33.9144 0 36.4434V43.5624H29.7294V30.695C27.1897 33.9248 24.4594 35.7205 21.5693 36.0286L21.5692 36.0289Z" fill="#248FBC"/>
<path d="M21.5691 28.1135C18.9766 28.379 16.9897 27.4229 15.0665 26.4878C13.3028 25.6273 11.4751 24.745 9.0418 24.7242H8.96754C6.00325 24.7242 2.98557 26.0098 0 28.528V33.7451C2.95358 31.6092 5.96056 30.5046 8.96754 30.5046H9.05247C11.9745 30.526 14.1099 31.567 15.9905 32.4808C17.7968 33.3626 19.3585 34.1172 21.3454 33.9047C24.2567 33.5965 27.0726 31.2486 29.7287 26.9773V22.7803C27.1895 26.0097 24.4592 27.8054 21.5691 28.1135H21.5691Z" fill="#248FBC"/>
<path d="M21.8677 2.56006C22.2714 2.29459 22.7601 2.12471 23.3658 2.12471C23.9501 2.12471 24.4281 1.64668 24.4281 1.06236C24.4281 0.478038 23.9501 0 23.3658 0C20.3273 0 18.8184 2.42263 18.2763 4.24988L4.02809 4.24944C3.61364 4.24944 3.24189 4.48335 3.06134 4.8551L0.797852 9.56217H28.9118L26.6595 4.8551C26.4892 4.48335 26.1174 4.24944 25.703 4.24944H20.5393C20.6456 3.99463 20.7839 3.72871 20.9538 3.4739L21.8677 2.56006Z" fill="#248FBC"/>
</svg>
