<svg width="46" height="50" viewBox="0 0 46 50" fill="none" xmlns="http://www.w3.org/2000/svg">
<path d="M31.2513 9.99866H1.25019C0.918281 9.99866 0.600195 10.1301 0.365811 10.3645C0.131427 10.5989 0 10.9169 0 11.2488V48.7502C0 49.0817 0.131427 49.3998 0.365811 49.6342C0.600195 49.8686 0.918281 50.0004 1.25019 50H31.2513C31.5828 50.0004 31.9009 49.8686 32.1353 49.6342C32.3697 49.3998 32.5015 49.0817 32.5011 48.7502V11.2488C32.5015 10.9169 32.3697 10.5989 32.1353 10.3645C31.9009 10.1301 31.5828 9.99866 31.2513 9.99866V9.99866ZM23.751 37.5H8.75047C8.05987 37.5 7.50028 36.94 7.50028 36.2498C7.50028 35.5597 8.05987 34.9997 8.75047 34.9997H23.751C24.4412 34.9997 25.0008 35.5597 25.0008 36.2498C25.0008 36.94 24.4412 37.5 23.751 37.5ZM23.751 29.9998H8.75047C8.05987 29.9998 7.50028 29.4397 7.50028 28.7496C7.50028 28.0594 8.05987 27.4994 8.75047 27.4994H23.751C24.4412 27.4994 25.0008 28.0594 25.0008 28.7496C25.0008 29.4397 24.4412 29.9998 23.751 29.9998ZM23.751 22.4995H8.75047C8.05987 22.4995 7.50028 21.9395 7.50028 21.2493C7.50028 20.5591 8.05987 19.9991 8.75047 19.9991H23.751C24.4412 19.9991 25.0008 20.5591 25.0008 21.2493C25.0008 21.9395 24.4412 22.4995 23.751 22.4995Z" fill="#248FBC"/>
<path d="M43.8645 2.5034L16.3621 0.00345525V0.00303671C15.6844 -0.0434211 15.0893 0.448361 15.0069 1.12261L14.3594 7.49871H33.7508C34.0823 7.49871 34.4004 7.63013 34.6348 7.86452C34.8692 8.09932 35.001 8.41699 35.001 8.74848V41.17L40.2868 42.1021C40.3583 42.1151 40.4312 42.1218 40.504 42.1214C41.1523 42.1218 41.6931 41.6258 41.7491 40.9801L44.9962 3.85689C45.0565 3.17091 44.5501 2.56567 43.8645 2.50331L43.8645 2.5034Z" fill="#248FBC"/>
</svg>
