<svg width="34" height="54" viewBox="0 0 34 54" fill="none" xmlns="http://www.w3.org/2000/svg">
<path d="M17 0C12.4917 0 8.16742 1.80894 4.97892 5.02946C1.7909 8.24958 0 12.617 0 17.1716C0 21.7253 1.7909 26.0931 4.97892 29.3138C8.16694 32.5339 12.4912 34.3428 17 34.3428C19.9844 34.3428 22.9156 33.5494 25.5 32.0425C28.0844 30.5353 30.2304 28.3675 31.7222 25.7572C33.2145 23.1468 34 20.1861 34 17.172C34 12.6179 32.2091 8.25046 29.0211 5.02985C25.8327 1.80933 21.5088 0.000390065 17 0.000390065V0ZM17.0094 4.81122L20.0757 14.1617L29.7051 14.1488L21.8481 19.9839L24.8363 29.2299L16.914 23.4855L9.13133 29.2128L12.092 19.828L4.29423 14.121L14.0466 14.0654L17.0094 4.81122ZM8.0249 32.9355V54L17.0004 48.027L25.976 54V32.9482C24.8842 33.6289 23.7194 34.1831 22.504 34.5991C22.5304 34.6745 22.5432 34.7541 22.5421 34.8337V44.8794C22.5443 45.0618 22.4742 45.2378 22.3471 45.3677C22.2204 45.4976 22.0473 45.5707 21.8663 45.5707C21.6856 45.5707 21.5125 45.4976 21.3855 45.3677C21.2584 45.2378 21.1882 45.0618 21.1905 44.8794V35.0073C20.0399 35.3044 18.8619 35.4788 17.6755 35.5276L17.6766 35.5459V42.0316C17.6789 42.214 17.6088 42.39 17.4817 42.5199C17.3546 42.6498 17.1815 42.7229 17.0009 42.7229C16.8202 42.7229 16.6468 42.6498 16.52 42.5199C16.393 42.39 16.3228 42.214 16.3251 42.0316V35.5459C16.3251 35.5348 16.3255 35.5238 16.3262 35.5127C15.1395 35.4617 13.9614 35.2853 12.8108 34.986V44.8795C12.8131 45.0619 12.743 45.2375 12.6162 45.3674C12.4892 45.4973 12.3161 45.5704 12.1351 45.5704C11.9544 45.5704 11.7813 45.4973 11.6542 45.3674C11.5272 45.2375 11.457 45.0619 11.4593 44.8795V34.8338C11.4581 34.7516 11.4717 34.6693 11.4996 34.592C10.2834 34.1741 9.11781 33.6184 8.02576 32.9354L8.0249 32.9355Z" fill="#248FBC"/>
</svg>
