<svg width="48" height="54" viewBox="0 0 48 54" fill="none" xmlns="http://www.w3.org/2000/svg">
<path d="M24.9819 29.1089C25.6074 29.7343 26.5738 29.7343 27.1425 29.1089L29.3598 26.8916C27.8246 25.243 26.8581 22.9686 26.8581 20.5809C26.8581 15.4071 31.0654 11.2569 36.1821 11.2569C38.456 11.2569 40.5599 12.1095 42.2084 13.4742C44.028 10.0061 43.4592 5.62829 40.5599 2.72887C38.7975 0.966509 36.4097 0.056752 34.0219 0.056752C31.6909 0.056752 29.3031 0.966499 27.5407 2.72887L26.0055 4.26401L24.4704 2.72887C22.7647 0.909757 20.3769 0 18.0458 0C15.6013 0 13.2131 0.966458 11.394 2.84267C7.9259 6.4813 8.15311 12.2805 11.6783 15.8053L24.9819 29.1089Z" fill="#248FBC"/>
<path d="M36.239 13.4741C32.316 13.4741 29.1323 16.6578 29.1323 20.5808C29.1323 24.5038 32.316 27.6875 36.239 27.6875C40.162 27.6875 43.3457 24.5038 43.3457 20.5808C43.3457 16.6578 40.162 13.4741 36.239 13.4741V13.4741ZM40.162 21.775H37.3761V24.5609H34.9882V21.775H32.2023V19.3871H34.9882V16.6012H37.3761V19.3871H40.162V21.775Z" fill="#248FBC"/>
<path d="M43.1181 37.0683C41.8106 37.637 39.5933 38.2624 37.2622 38.9445C36.4663 40.3658 34.9311 41.6166 32.4866 42.1853C31.9179 42.2992 31.2925 42.4126 30.5537 42.4697C28.848 42.5835 26.8013 42.4697 24.584 42.413H24.1291C23.5604 42.413 23.1059 42.0148 23.0488 41.4465C22.9921 40.7644 23.5037 40.1957 24.1857 40.1957H24.6973C27.5968 40.3096 30.3259 40.423 31.9746 40.0819C35.1016 39.3427 35.9542 37.4098 35.6699 35.7612C35.4426 34.4536 34.4191 33.2028 32.8839 33.3733C30.6666 33.6005 28.0512 33.5438 25.4929 33.4871C22.5934 33.4304 19.5803 33.4304 17.4764 33.7715C15.1453 34.1696 10.3697 36.1026 6.2763 39.1158C4.22998 40.6497 1.95594 42.4126 0.591355 43.4924C-0.0907647 44.0611 -0.204573 45.0275 0.364114 45.7097L6.84541 53.4418C7.41411 54.1239 8.38056 54.181 9.0627 53.6123L11.28 51.7928C11.7916 51.3379 12.4741 51.2241 13.1561 51.3946C17.3634 52.5316 21.798 53.2141 24.6974 53.2708C31.0081 53.3275 42.8337 45.3681 46.2449 42.8097C49.5995 40.2518 46.9274 35.5329 43.1182 37.068L43.1181 37.0683Z" fill="#248FBC"/>
</svg>
