<svg width="52" height="52" viewBox="0 0 52 52" fill="none" xmlns="http://www.w3.org/2000/svg">
<path fill-rule="evenodd" clip-rule="evenodd" d="M11.3286 24.1429C13 24.1429 13 11.1429 17.8286 11.1429C22.6571 11.1429 22.6571 31.5714 24.3286 31.5714C26 31.5714 26 18.5714 30.8286 18.5714C35.6571 18.5714 34.1714 27.8571 35.6571 27.8571C37.1429 27.8571 37.3286 22.2857 40.4857 22.2857H50.7C51.4429 20.2429 52 18.0143 52 15.7857C52 7.05714 45.8714 0 38.2571 0C33.0571 0 28.4143 3.34286 26 8.35714C23.5857 3.34286 19.1286 0 13.7429 0C6.12857 0 0 7.05714 0 15.7857C0 18.9429 0.742857 21.7286 2.04286 24.1429H11.3286Z" fill="#248FBC"/>
<path fill-rule="evenodd" clip-rule="evenodd" d="M48.6572 26H42.1572C38.8143 26 38.8143 31.5714 35.6572 31.5714C30.8286 31.5714 32.3143 22.2857 30.8286 22.2857C29.3429 22.2857 29.1572 37.1429 24.3286 37.1429C19.5 37.1429 19.5 16.7143 17.8286 16.7143C16.1572 16.7143 16.1572 27.8572 13 27.8572H4.82861C4.82861 27.8572 22.4715 49.4 23.5858 50.8857C24.8858 52.3714 26.9286 52.3714 28.2286 50.8857C29.5286 49.4 47.1715 27.8572 47.1715 27.8572C47.7286 27.3 48.2858 26.7429 48.6572 26Z" fill="#248FBC"/>
</svg>
