<svg width="41" height="51" viewBox="0 0 41 51" fill="none" xmlns="http://www.w3.org/2000/svg">
<path d="M4.88719 29.5558L18.9174 8.89883L16.3164 7.13426C16.2227 7.07027 16.1075 7.04618 15.9961 7.06763C15.8847 7.08871 15.7864 7.15345 15.7228 7.24756L8.16828 18.3474C7.6861 19.0551 6.86326 19.4518 6.00959 19.3882C5.15593 19.3246 4.40084 18.8101 4.02927 18.0392C3.65737 17.2679 3.72551 16.357 4.20732 15.6493L11.7134 4.56582C12.4911 3.41662 13.6941 2.62395 15.057 2.36377C16.4201 2.10367 17.8308 2.3969 18.977 3.17908L21.578 4.94364L23.0994 2.69871C24.5001 0.83287 26.7645 -0.177865 29.0885 0.0258432C31.4124 0.229484 33.4666 1.61879 34.5209 3.70001C35.5752 5.78122 35.4803 8.25905 34.2698 10.2533L16.0305 37.1324C12.708 42.0378 7.93164 45.7782 2.37322 47.8275C1.83909 48.0229 1.24358 47.9484 0.774204 47.6269C0.305194 47.3055 0.0202521 46.777 0.00971017 46.2086C-0.145374 40.2843 1.56055 34.4602 4.88762 29.5554L4.88719 29.5558ZM29.494 43.2189C27.0064 43.2189 25.7168 44.6975 24.8586 45.6795C24.1084 46.5373 23.9303 46.6615 23.4718 46.6615C23.013 46.6615 22.8297 46.532 22.0851 45.6742C21.2272 44.6922 19.9268 43.2136 17.4443 43.2136C14.9619 43.2136 13.7046 44.6489 12.8468 45.6256C12.435 46.0314 12.2028 46.5851 12.2028 47.1632C12.2028 47.7418 12.435 48.2955 12.8468 48.7013C13.2518 49.1067 13.801 49.3344 14.374 49.3344C14.9469 49.3344 15.4964 49.1067 15.9011 48.7013L15.9658 48.6365L16.052 48.5394C16.8022 47.6816 16.9803 47.5521 17.4388 47.5521C17.8976 47.5521 18.0809 47.6816 18.8255 48.5394C19.6834 49.5214 20.9838 51 23.4663 51C25.9487 51 27.2435 49.5214 28.1017 48.5394C28.8519 47.6816 29.03 47.5521 29.4885 47.5521C29.9473 47.5521 30.1306 47.6816 30.8808 48.5394C31.7386 49.5214 33.0391 51 35.5216 51C38.004 51 39.2988 49.5214 40.157 48.5447C40.5756 48.122 40.8011 47.5454 40.7804 46.951C40.7597 46.3566 40.4947 45.7973 40.0475 45.4047C39.6007 45.0121 39.0116 44.8212 38.4195 44.8773C37.8274 44.9338 37.2846 45.2315 36.9195 45.7009C36.1693 46.5535 35.9913 46.6829 35.5272 46.6829C35.0631 46.6829 34.885 46.5534 34.1349 45.6956C33.2985 44.7026 31.9818 43.2188 29.4945 43.2188L29.494 43.2189Z" fill="#248FBC"/>
</svg>
