<svg width="55" height="49" viewBox="0 0 55 49" fill="none" xmlns="http://www.w3.org/2000/svg">
<path d="M16.7069 22.0111C23.789 23.5026 30.6821 23.6085 37.3535 22.0346C38.2345 21.8349 38.8215 20.9778 38.6452 20.0851C37.9288 16.2446 35.3567 13.062 31.8922 11.4881C30.6005 12.6743 28.8854 13.3907 27.0067 13.3907C25.1276 13.3907 23.4129 12.6743 22.1212 11.4881C18.6686 13.0503 16.1081 16.2212 15.3682 20.0498C15.2033 20.9538 15.8142 21.8114 16.7069 22.0111V22.0111Z" fill="#248FBC"/>
<path d="M33.1375 6.13075C33.1375 9.51658 30.3926 12.2615 27.0067 12.2615C23.6205 12.2615 20.876 9.51658 20.876 6.13075C20.876 2.74492 23.6205 0 27.0067 0C30.3926 0 33.1375 2.74492 33.1375 6.13075" fill="#248FBC"/>
<path d="M16.5426 37.3136C15.2509 38.4998 13.5476 39.2162 11.6571 39.2162C9.76613 39.2162 8.06327 38.4998 6.77156 37.3136C3.31893 38.8759 0.758409 42.0585 0.0303571 45.8754C-0.14592 46.7798 0.464988 47.6486 1.3573 47.8367C8.43941 49.3281 15.3326 49.4341 22.004 47.8719C22.8849 47.6604 23.472 46.8033 23.2957 45.9106C22.5675 42.0701 20.0071 38.8754 16.5427 37.3136L16.5426 37.3136Z" fill="#248FBC"/>
<path d="M17.7099 30.9779C18.2522 34.3202 15.9827 37.4694 12.6404 38.0117C9.29843 38.554 6.14925 36.2841 5.60693 32.9421C5.06463 29.5998 7.33414 26.4506 10.6765 25.9083C14.0184 25.366 17.1676 27.6355 17.7099 30.9779Z" fill="#248FBC"/>
<path d="M53.9957 45.9101C53.2675 42.0697 50.6954 38.8754 47.231 37.3131C45.9393 38.4993 44.2242 39.2157 42.3455 39.2157C40.4664 39.2157 38.7517 38.4993 37.46 37.3131C34.0074 38.8754 31.4469 42.058 30.7188 45.8749C30.5425 46.7793 31.1534 47.6481 32.0579 47.8362C39.14 49.3276 46.0331 49.4336 52.6923 47.8714C53.5729 47.6599 54.1599 46.8024 53.9954 45.9101L53.9957 45.9101Z" fill="#248FBC"/>
<path d="M48.4793 31.9605C48.4793 35.3463 45.7348 38.0912 42.3485 38.0912C38.9627 38.0912 36.2178 35.3463 36.2178 31.9605C36.2178 28.5742 38.9627 25.8297 42.3485 25.8297C45.7348 25.8297 48.4793 28.5742 48.4793 31.9605Z" fill="#248FBC"/>
<path d="M27.0553 25.2423C27.0492 25.2423 27.044 25.2458 27.0379 25.2458C27.0319 25.2458 27.0267 25.2423 27.0206 25.2423C26.6958 25.2423 26.4336 25.505 26.4336 25.8294V32.5459L22.0938 36.8856C21.8646 37.1149 21.8646 37.4866 22.0938 37.7158C22.2084 37.8304 22.3587 37.8878 22.5089 37.8878C22.6591 37.8878 22.8094 37.8305 22.924 37.7158L27.0384 33.6014L31.1533 37.7158C31.2679 37.8304 31.4182 37.8878 31.5684 37.8878C31.7186 37.8878 31.8689 37.8305 31.9835 37.7158C32.2127 37.4866 32.2127 37.1149 31.9835 36.8856L27.6429 32.5459V25.8294C27.6429 25.505 27.3802 25.2423 27.0554 25.2423H27.0553Z" fill="#248FBC"/>
</svg>
