<svg width="53" height="42" viewBox="0 0 53 42" fill="none" xmlns="http://www.w3.org/2000/svg">
<path fill-rule="evenodd" clip-rule="evenodd" d="M50.0565 0H2.94349C1.3156 0 0 1.34137 0 2.99995V39.0001C0 40.6562 1.3156 42 2.94349 42H50.0565C51.6844 42 53 40.6562 53 39.0001V2.99995C53 1.34377 51.6844 0 50.0565 0ZM36.0694 10.5006C38.1015 10.5006 39.7496 12.1807 39.7496 14.2503C39.7496 16.3194 38.1007 17.9999 36.0694 17.9999C34.0381 17.9999 32.3891 16.3189 32.3891 14.2503C32.3891 12.1808 34.0381 10.5006 36.0694 10.5006ZM8.83306 32.9993L18.5913 10.1427L29.6887 28.4484L39.2024 23.6323L44.1674 32.9975L8.83306 32.9993Z" fill="#248FBC"/>
</svg>
