<svg width="47" height="58" viewBox="0 0 47 58" fill="none" xmlns="http://www.w3.org/2000/svg">
<path d="M38.4458 5.35366C35.7424 3.13505 32.5784 1.54525 29.184 0.699566C25.7897 -0.145715 22.249 -0.226176 18.8195 0.464659C12.8258 1.68122 7.54281 5.18446 4.09398 10.2312C0.644563 15.2775 -0.699807 21.4692 0.346499 27.4905C1.3928 33.5115 4.74781 38.888 9.69809 42.477C14.931 46.4371 19.2255 51.5014 22.2758 57.3096C22.534 57.7346 22.9945 57.9958 23.492 58C23.9969 57.9954 24.461 57.7216 24.7086 57.2819L25.3445 56.1217H25.344C28.5829 50.5903 32.8968 45.7633 38.0319 41.9248C41.7233 39.0231 44.4592 35.0825 45.8874 30.6115C47.3155 26.1404 47.3701 21.3449 46.0438 16.8431C44.7175 12.3411 42.071 8.33941 38.4466 5.35454L38.4458 5.35366ZM23.5189 33.1402C20.9529 33.1402 18.4923 32.1215 16.6778 30.3089C14.8634 28.4958 13.8439 26.0367 13.8439 23.4726C13.8439 20.9091 14.8633 18.4499 16.6778 16.6369C18.4923 14.8238 20.9529 13.8055 23.5189 13.8055C26.0849 13.8055 28.5454 14.8238 30.3599 16.6369C32.1743 18.4499 33.1939 20.9091 33.1939 23.4726C33.1939 26.0367 32.1744 28.4958 30.3599 30.3089C28.5454 32.1215 26.0849 33.1402 23.5189 33.1402Z" fill="#248FBC"/>
</svg>
