<svg width="39" height="52" viewBox="0 0 39 52" fill="none" xmlns="http://www.w3.org/2000/svg">
<path d="M37.6129 0H8.70761C8.34017 0.00120176 7.98813 0.147697 7.72831 0.407514C7.4685 0.667331 7.322 1.01937 7.3208 1.38681V5.24184H32.0292C32.3967 5.24304 32.7487 5.38954 33.0085 5.64935C33.2683 5.90917 33.4148 6.26121 33.416 6.62865V42.5045H37.6129C37.9804 42.5033 38.3324 42.3568 38.5922 42.097C38.852 41.8371 38.9985 41.4851 38.9997 41.1177V1.38681C38.9985 1.01937 38.852 0.667331 38.5922 0.407514C38.3324 0.147697 37.9804 0.00120176 37.6129 0V0Z" fill="#248FBC"/>
<path d="M19.9703 47.0625C17.5827 47.0625 15.2929 46.1141 13.6047 44.4258C11.9164 42.7375 10.968 40.4478 10.968 38.0602C10.9687 37.6408 10.9984 37.222 11.0569 36.8067H6.15688C5.9151 36.8067 5.68323 36.7107 5.51227 36.5397C5.3413 36.3688 5.24526 36.1369 5.24526 35.8951C5.24526 35.6533 5.3413 35.4215 5.51227 35.2505C5.68323 35.0795 5.9151 34.9835 6.15688 34.9835H11.5127C11.9498 33.7811 12.6382 32.6858 13.532 31.7704C14.4258 30.855 15.5044 30.1406 16.696 29.6749C17.8876 29.2092 19.1647 29.0028 20.4424 29.0695C21.72 29.1361 22.9687 29.4744 24.1053 30.0616C25.242 30.6489 26.2404 31.4717 27.034 32.4751C27.8276 33.4786 28.3982 34.6397 28.7078 35.881C29.0174 37.1223 29.0589 38.4154 28.8295 39.674C28.6 40.9326 28.1049 42.1279 27.3772 43.1801L31.6824 47.4853V8.33785C31.6811 7.96982 31.5342 7.61727 31.2736 7.35735C31.0131 7.09744 30.6602 6.95134 30.2921 6.95104H1.38681C1.01937 6.95224 0.667332 7.09874 0.407515 7.35856C0.147698 7.61837 0.00120176 7.97042 0 8.33785V48.0687C0.00120176 48.4361 0.147698 48.7882 0.407515 49.048C0.667332 49.3078 1.01937 49.4543 1.38681 49.4555H28.1749L24.5386 45.8193C23.1548 46.6356 21.577 47.065 19.9703 47.0625V47.0625ZM6.15346 15.3836H25.8673C26.1091 15.3836 26.341 15.4796 26.5119 15.6506C26.6829 15.8215 26.779 16.0534 26.779 16.2952C26.779 16.537 26.6829 16.7688 26.5119 16.9398C26.341 17.1108 26.1091 17.2068 25.8673 17.2068H6.15346C5.91168 17.2068 5.67981 17.1108 5.50885 16.9398C5.33788 16.7688 5.24184 16.537 5.24184 16.2952C5.24184 16.0534 5.33788 15.8215 5.50885 15.6506C5.67981 15.4796 5.91168 15.3836 6.15346 15.3836V15.3836ZM6.15346 25.1835H25.8673C26.1091 25.1835 26.341 25.2796 26.5119 25.4505C26.6829 25.6215 26.779 25.8534 26.779 26.0952C26.779 26.3369 26.6829 26.5688 26.5119 26.7398C26.341 26.9107 26.1091 27.0068 25.8673 27.0068H6.15346C5.91168 27.0068 5.67981 26.9107 5.50885 26.7398C5.33788 26.5688 5.24184 26.3369 5.24184 26.0952C5.24184 25.8534 5.33788 25.6215 5.50885 25.4505C5.67981 25.2796 5.91168 25.1835 6.15346 25.1835V25.1835Z" fill="#248FBC"/>
<path d="M32.8035 49.59L26.1315 42.918C27.3088 41.4142 27.8779 39.5229 27.7261 37.6192C27.5743 35.7154 26.7126 33.9382 25.3119 32.6399C23.9112 31.3417 22.0738 30.6172 20.164 30.6102C18.2542 30.6031 16.4115 31.314 15.0012 32.6018C13.591 33.8897 12.7162 35.6604 12.5503 37.563C12.3844 39.4656 12.9395 41.3611 14.1056 42.8736C15.2717 44.3861 16.9636 45.4051 18.8458 45.7287C20.7279 46.0523 22.663 45.6567 24.2673 44.6205L31.0235 51.3734C31.2197 51.5681 31.4849 51.6774 31.7614 51.6774C32.0378 51.6774 32.3031 51.5681 32.4992 51.3734L32.8069 51.0657C33.0018 50.8694 33.1108 50.6038 33.1102 50.3271C33.1096 50.0505 32.9993 49.7854 32.8035 49.59V49.59ZM20.1365 43.6097C19.072 43.6097 18.0314 43.2941 17.1463 42.7026C16.2612 42.1112 15.5714 41.2706 15.164 40.2871C14.7567 39.3036 14.6502 38.2214 14.858 37.1773C15.0657 36.1333 15.5784 35.1743 16.3312 34.4217C17.084 33.6691 18.0431 33.1566 19.0872 32.949C20.1313 32.7415 21.2134 32.8482 22.1969 33.2557C23.1803 33.6633 24.0207 34.3533 24.612 35.2385C25.2032 36.1237 25.5187 37.1644 25.5185 38.2289C25.5185 38.9356 25.3792 39.6354 25.1088 40.2883C24.8383 40.9412 24.4418 41.5345 23.942 42.0341C23.4423 42.5338 22.8489 42.9301 22.196 43.2005C21.543 43.4708 20.8432 43.6099 20.1365 43.6097V43.6097Z" fill="#248FBC"/>
</svg>
