<svg width="50" height="53" viewBox="0 0 50 53" fill="none" xmlns="http://www.w3.org/2000/svg">
<path d="M34.9669 0H14.9229C6.66299 0 0 6.66318 0 14.9229V25.881C0 34.1409 6.66318 40.8039 14.9229 40.8039H15.3635L20.7598 49.8896C22.6873 53.1384 27.3676 53.1384 29.2398 49.8896L34.6362 40.8039H35.0767C43.3366 40.8039 49.9996 34.1407 49.9996 25.881L50 14.9229C49.9447 6.66298 43.227 0 34.967 0H34.9669ZM36.3985 18.6674L31.9383 23.0174C31.7182 23.2375 31.6079 23.5129 31.6629 23.8432L32.7092 29.9007C32.8744 30.947 31.7731 31.7728 30.7817 31.2773L25.2751 28.3588C24.9997 28.1937 24.6694 28.1937 24.394 28.3588L18.9976 31.2224C18.0615 31.7179 16.905 30.892 17.0701 29.8457L18.1164 23.6784C18.1714 23.403 18.0615 23.0727 17.841 22.8526L13.4357 18.5574C12.6648 17.7865 13.1053 16.4648 14.1516 16.2996L20.3189 15.4185C20.6493 15.3636 20.8697 15.1984 21.0349 14.923L23.7332 9.41638C24.2287 8.42539 25.6054 8.42539 26.1009 9.41638L28.8542 15.0332C28.9644 15.3086 29.2398 15.4738 29.5701 15.5287L35.6276 16.4099C36.7838 16.63 37.1695 17.9513 36.3985 18.6673L36.3985 18.6674Z" fill="#248FBC"/>
</svg>
