<svg width="63" height="21" viewBox="0 0 63 21" fill="none" xmlns="http://www.w3.org/2000/svg">
<path d="M43.5556 12.4445H31.8889H30.3334H18.6667L7.77783 21H30.3334H31.8889H54.4445L43.5556 12.4445Z" fill="#248FBC"/>
<path d="M24.1111 6.22222C25.8293 6.22222 27.2222 4.82933 27.2222 3.11111C27.2222 1.39289 25.8293 0 24.1111 0C22.3929 0 21 1.39289 21 3.11111C21 4.82933 22.3929 6.22222 24.1111 6.22222Z" fill="#248FBC"/>
<path d="M25.6666 7.00006C24.8888 7.00006 23.3332 7.00006 22.5554 7.00006C20.9999 7.00006 19.4443 8.55562 19.4443 10.1112V10.889C19.4443 11.6667 20.2221 12.4445 20.9999 12.4445H27.9999C28.7777 12.4445 29.5555 11.6667 29.5555 10.889V9.3334C28.7777 7.77784 27.2221 7.00006 25.6666 7.00006Z" fill="#248FBC"/>
<path d="M38.1111 6.22222C39.8293 6.22222 41.2222 4.82933 41.2222 3.11111C41.2222 1.39289 39.8293 0 38.1111 0C36.3929 0 35 1.39289 35 3.11111C35 4.82933 36.3929 6.22222 38.1111 6.22222Z" fill="#248FBC"/>
<path d="M39.6665 7.00006C38.1109 7.77784 37.3332 7.77784 35.7776 7.00006C34.2221 7.00006 32.6665 8.55562 32.6665 10.1112V10.889C32.6665 11.6667 33.4443 12.4445 34.2221 12.4445H41.2221C41.9998 12.4445 42.7776 11.6667 42.7776 10.889V9.3334C42.7776 7.77784 41.2221 7.00006 39.6665 7.00006Z" fill="#248FBC"/>
<path d="M49.7776 9.33332C51.4958 9.33332 52.8887 7.94043 52.8887 6.22221C52.8887 4.50399 51.4958 3.1111 49.7776 3.1111C48.0594 3.1111 46.6665 4.50399 46.6665 6.22221C46.6665 7.94043 48.0594 9.33332 49.7776 9.33332Z" fill="#248FBC"/>
<path d="M52.8886 14.7777C53.6664 14.7777 54.4442 14 54.4442 14V13.2222C54.4442 11.6666 52.8886 10.1111 51.3331 10.1111C49.7775 10.8888 48.9997 10.8888 47.4442 10.1111C45.8886 10.1111 45.1108 10.8888 45.1108 12.4444L48.2219 15.5555H52.8886V14.7777Z" fill="#248FBC"/>
<path d="M13.2224 9.33332C14.9407 9.33332 16.3336 7.94043 16.3336 6.22221C16.3336 4.50399 14.9407 3.1111 13.2224 3.1111C11.5042 3.1111 10.1113 4.50399 10.1113 6.22221C10.1113 7.94043 11.5042 9.33332 13.2224 9.33332Z" fill="#248FBC"/>
<path d="M14.7778 10.1111C13.2223 10.8888 12.4445 10.8888 10.8889 10.1111C9.33339 10.1111 7.77783 11.6666 7.77783 13.2222V14C7.77783 14.7777 8.55561 15.5555 9.33339 15.5555H14.0001L17.8889 12.4444C17.1112 10.8888 16.3334 10.1111 14.7778 10.1111Z" fill="#248FBC"/>
<path d="M57.5554 14.7778C59.2737 14.7778 60.6666 13.3849 60.6666 11.6666C60.6666 9.94842 59.2737 8.55553 57.5554 8.55553C55.8372 8.55553 54.4443 9.94842 54.4443 11.6666C54.4443 13.3849 55.8372 14.7778 57.5554 14.7778Z" fill="#248FBC"/>
<path d="M59.1113 14.7778C57.5558 15.5556 56.778 15.5556 55.2224 14.7778C53.6669 14.7778 52.1113 16.3334 52.1113 17.8889V18.6667L53.6669 20.2222H60.6669C61.4447 19.4445 62.2224 19.4445 62.2224 18.6667V17.8889C62.2224 16.3334 60.6669 14.7778 59.1113 14.7778Z" fill="#248FBC"/>
<path d="M4.66677 14.7778C6.38499 14.7778 7.77789 13.3849 7.77789 11.6666C7.77789 9.94842 6.38499 8.55553 4.66677 8.55553C2.94856 8.55553 1.55566 9.94842 1.55566 11.6666C1.55566 13.3849 2.94856 14.7778 4.66677 14.7778Z" fill="#248FBC"/>
<path d="M3.11111 14.7778C4.66667 15.5556 5.44444 15.5556 7 14.7778C8.55556 14.7778 10.1111 16.3334 10.1111 17.8889V18.6667L8.55555 19.4445H1.55556C0.777778 19.4445 0 19.4445 0 18.6667V17.8889C0 16.3334 1.55556 14.7778 3.11111 14.7778Z" fill="#248FBC"/>
</svg>
