<svg width="47" height="47" viewBox="0 0 47 47" fill="none" xmlns="http://www.w3.org/2000/svg">
<path d="M46.9814 1.7951L45.1713 0L39.2032 4.08303L38.6073 6.50571L21.5776 23.3852L17.1912 27.7309L16.0626 26.6123V26.6127C14.8672 27.3528 13.4134 27.5503 12.0637 27.1558L0.920134 38.2042C0.331482 38.7852 0 39.5782 0 40.4058C0 41.2331 0.331482 42.0261 0.920134 42.6074L3.99856 45.6589V45.6585C4.59013 46.2428 5.3882 46.5703 6.21945 46.5703C7.05107 46.5703 7.84884 46.2428 8.44033 45.6585L19.583 34.6119C19.1852 33.2733 19.3848 31.8282 20.1312 30.6476L19.0013 29.5275L23.3877 25.1817L40.4193 8.30036L42.8631 7.70989L46.9814 1.7951Z" fill="#248FBC"/>
<path d="M45.5185 37.938L28.763 21.1825L21.5801 28.3025L38.3673 45.0897C39.6447 46.3671 41.5069 46.8662 43.2517 46.3988C44.9969 45.9311 46.36 44.568 46.8277 42.8232C47.2954 41.078 46.7964 39.2162 45.5189 37.9384L45.5185 37.938ZM42.2772 43.932C41.7246 43.932 41.1943 43.7123 40.8034 43.3214C40.4125 42.9306 40.1929 42.4006 40.1929 41.848C40.1929 41.295 40.4125 40.765 40.8034 40.3741C41.1942 39.9833 41.7246 39.7636 42.2772 39.7636C42.8298 39.7636 43.3602 39.9833 43.7511 40.3741C44.1419 40.765 44.3612 41.295 44.3612 41.848C44.3612 42.4006 44.1419 42.9305 43.7511 43.3214C43.3602 43.7123 42.8298 43.932 42.2772 43.932Z" fill="#248FBC"/>
<path d="M25.6257 18.0454L20.6914 13.1111C21.3107 10.7117 21.0604 8.17024 19.9851 5.9376C18.9095 3.70506 17.0779 1.92526 14.8154 0.913662C12.5529 -0.0975608 10.0057 -0.274926 7.62487 0.412433L13.5737 6.3605L12.0281 12.1509L6.24036 13.6939L0.361858 7.82054C-0.293086 10.2695 -0.0399264 12.8722 1.07472 15.1488C2.18936 17.4255 4.09011 19.2217 6.42616 20.2059C8.76184 21.1901 11.375 21.2958 13.7829 20.5035L18.443 25.1653L25.6257 18.0454Z" fill="#248FBC"/>
</svg>
