<svg width="51" height="51" viewBox="0 0 51 51" fill="none" xmlns="http://www.w3.org/2000/svg">
<path fill-rule="evenodd" clip-rule="evenodd" d="M32.8569 1.09411C37.8468 2.60796 42.1891 5.60919 45.3674 9.58289H36.3592C35.4563 6.75339 34.2925 3.92389 32.8571 1.09411H32.8569ZM25.4452 51C24.3125 51 23.1982 50.9262 22.1043 50.7829C20.5463 47.6608 19.2196 44.5386 18.1517 41.416H32.7381C31.6702 44.5386 30.3428 47.6607 28.7855 50.7829C27.6926 50.9266 26.578 51 25.4452 51ZM18.3808 50.0076C16.9949 47.1439 15.8314 44.2796 14.8972 41.4162H5.52303C8.77493 45.4815 13.2451 48.5298 18.3802 50.0076H18.3808ZM35.994 41.4162C35.0598 44.2799 33.8963 47.144 32.5104 50.0076C37.6454 48.5298 42.1155 45.4814 45.3676 41.4162H35.994ZM3.2779 38.1108C1.41402 34.8419 0.253768 31.1202 0 27.1526H12.2002C12.3791 30.8054 12.9591 34.458 13.9218 38.1108H3.2779ZM15.1779 27.1526H35.7139C35.4647 30.8054 34.8028 34.4583 33.7719 38.1108H17.1196C16.0891 34.458 15.4272 30.8051 15.1781 27.1526H15.1779ZM38.6914 27.1526H50.8916C50.6378 31.1201 49.4776 34.8422 47.6133 38.1108H36.9698C37.933 34.458 38.5125 30.8051 38.6915 27.1526H38.6914ZM0.000182401 23.8472C0.253969 19.8796 1.41457 16.1579 3.27809 12.8889H13.5958C12.6915 16.5418 12.2167 20.1946 12.1504 23.8472H0.000182401ZM16.4061 12.8889H34.4865C35.3898 16.5418 35.8211 20.1946 35.8254 23.8472L15.0668 23.8468C15.071 20.1943 15.5023 16.5411 16.406 12.8885L16.4061 12.8889ZM37.2971 12.8889H47.6138C49.4774 16.1582 50.638 19.8795 50.8921 23.8472H38.7421C38.6754 20.1943 38.2003 16.5411 37.2967 12.8889H37.2971ZM5.5245 9.58316C8.70294 5.6102 13.0452 2.60787 18.035 1.09439C16.5996 3.92425 15.4361 6.75375 14.5328 9.58316H5.5245ZM21.4532 0.311183C19.7213 3.4023 18.3639 6.49268 17.3548 9.58316H33.5381C32.5287 6.49241 31.1712 3.40202 29.4396 0.311183C28.139 0.106225 26.8051 0 25.4467 0C24.0882 0 22.7548 0.106581 21.4534 0.311183H21.4532Z" fill="#248FBC"/>
</svg>
